<svg width="272" height="80" viewBox="0 0 272 80" fill="none" xmlns="http://www.w3.org/2000/svg" role="img" aria-label="Apple Pay">
  <rect width="272" height="80" rx="18" fill="#050505"/>
  <rect x="1" y="1" width="270" height="78" rx="17" stroke="white" stroke-opacity="0.1"/>
  <path d="M46.6 23.8C45.5 25.3 43.7 26.6 41.6 26.4C41.4 24.3 42.3 22.2 43.5 20.9C44.8 19.4 46.8 18.4 49 18.4C49.2 20.5 48.3 22.6 46.6 23.8Z" fill="white"/>
  <path d="M39.8 28.1C42.8 28.1 44.2 29.2 46.1 29.2C48 29.2 49.5 28.1 52.4 28.1C54.2 28.1 57 29.2 58.5 31.6C54.3 34 54.6 39.7 58.7 41.8C57.4 44.6 55.5 47.5 53.1 47.5C51.4 47.5 50.6 46.6 48.8 46.6C47 46.6 46 47.5 44.3 47.5C42 47.5 40.1 44.9 38.8 41.9C37 37.8 36.6 30.8 39.8 28.1Z" fill="white"/>
  <text x="82" y="49" font-family="Arial, sans-serif" font-size="30" font-weight="700" fill="white">Apple</text>
  <text x="173" y="49" font-family="Arial, sans-serif" font-size="30" font-weight="700" fill="white">Pay</text>
</svg>
